Coordinates
version=1
nRows=21
nColumns=22
inDegrees=yes

Units are S.I. units (second, meters, Newtons, ...)
If the header above contains a line with 'inDegrees', this indicates whether rotational values are in degrees (yes) or radians (no).

endheader
time	pelvis_tilt	pelvis_list	pelvis_rotation	pelvis_tx	pelvis_ty	pelvis_tz	hip_flexion_r	hip_adduction_r	hip_rotation_r	knee_angle_r	ankle_angle_r	subtalar_angle_r	hip_flexion_l	hip_adduction_l	hip_rotation_l	knee_angle_l	ankle_angle_l	subtalar_angle_l	lumbar_extension	lumbar_bending	lumbar_rotation
      0.01000000	     -1.05320745	     -4.86726017	     -3.13515486	      0.14542122	      1.02001988	      0.94557335	      2.84576622	      8.11991099	      1.96322556	    -10.60782102	      9.45870695	     -1.22886436	      2.35045134	     -3.48477541	     -2.83749004	    -11.06167069	      6.69965704	    -12.33385751	    -10.28734888	      3.51042161	      2.23381695
      0.02000000	     -1.05079037	     -4.86782444	     -3.13975826	      0.14542676	      1.02001904	      0.94555870	      2.84281357	      8.11809906	      1.96380999	    -10.60863820	      9.45748697	     -1.22882186	      2.34975529	     -3.48410342	     -2.83621416	    -11.06684618	      6.70067020	    -12.33369119	    -10.28133237	      3.51348205	      2.23271811
      0.03000000	     -1.04758090	     -4.86835437	     -3.14584986	      0.14543309	      1.02001909	      0.94553907	      2.83827467	      8.11560915	      1.96604179	    -10.60819513	      9.45682275	     -1.22859763	      2.34926309	     -3.48306634	     -2.83486767	    -11.07461066	      6.70217191	    -12.33365532	    -10.27463208	      3.51726555	      2.23080725
      0.04000000	     -1.04346699	     -4.86895655	     -3.15310798	      0.14544104	      1.02001768	      0.94551544	      2.83174311	      8.11254374	      1.97063210	    -10.60618250	      9.45671988	     -1.22806620	      2.34916960	     -3.48153707	     -2.83365323	    -11.08573624	      6.70446553	    -12.33379435	    -10.26730779	      3.52175936	      2.22801555
      0.05000000	     -1.03683514	     -4.87068481	     -3.15644113	      0.14541852	      1.02001864	      0.94548718	      2.80844249	      8.11149981	      2.01135279	    -10.57450491	      9.46012086	     -1.22244724	      2.36646366	     -3.48290135	     -2.84243842	    -11.13115972	      6.72500108	    -12.33602430	    -10.27075694	      3.52619881	      2.21638747
      0.06000000	     -1.03165539	     -4.87218582	     -3.16250383	      0.14544052	      1.02001845	      0.94545322	      2.80203248	      8.10855449	      2.01409462	    -10.57715243	      9.45939015	     -1.22176847	      2.36273890	     -3.48216166	     -2.84229260	    -11.13871806	      6.72639602	    -12.33615696	    -10.26049861	      3.53125309	      2.21498502
      0.07000000	     -1.02658003	     -4.87345678	     -3.17275699	      0.14545509	      1.02001935	      0.94541139	      2.79480115	      8.10472606	      2.01889219	    -10.57645806	      9.45938686	     -1.22057310	      2.36070572	     -3.47999398	     -2.84175146	    -11.15008674	      6.72856482	    -12.33651173	    -10.25346913	      3.53780368	      2.21257516
      0.08000000	     -1.01280707	     -4.87766041	     -3.18039287	      0.14543373	      1.02003026	      0.94537165	      2.76536304	      8.10503081	      2.07069671	    -10.54927176	      9.46338439	     -1.20770937	      2.37199505	     -3.48333466	     -2.86002628	    -11.20075422	      6.75250075	    -12.34115172	    -10.26746053	      3.54382241	      2.20870079
      0.09000000	     -1.00816666	     -4.87954416	     -3.18873252	      0.14546213	      1.02003112	      0.94531382	      2.75945691	      8.10126669	      2.07283811	    -10.55159312	      9.46264975	     -1.20646777	      2.36760281	     -3.48085292	     -2.86023510	    -11.20764697	      6.75372570	    -12.34142066	    -10.25904866	      3.55062527	      2.20826377
      0.10000000	     -1.00397239	     -4.88116602	     -3.19863862	      0.14548312	      1.02003022	      0.94524536	      2.75377983	      8.09629956	      2.07685291	    -10.55204170	      9.46247933	     -1.20481146	      2.36521174	     -3.47740508	     -2.86027209	    -11.21683313	      6.75546137	    -12.34191747	    -10.25473457	      3.55824933	      2.20824195
      0.11000000	     -0.98645837	     -4.88560517	     -3.21341093	      0.14546697	      1.02004873	      0.94519048	      2.72766932	      8.09642607	      2.13069649	    -10.53985056	      9.46574944	     -1.18402923	      2.36819962	     -3.47920255	     -2.88662145	    -11.26285621	      6.77988577	    -12.34951057	    -10.27777959	      3.56237195	      2.22604436
      0.12000000	     -0.98454310	     -4.88765381	     -3.22215171	      0.14549544	      1.02004845	      0.94509984	      2.72453915	      8.09169363	      2.13214170	    -10.54083739	      9.46544664	     -1.18233591	      2.36465397	     -3.47455660	     -2.88840120	    -11.26564929	      6.78091914	    -12.34997595	    -10.27416110	      3.57147297	      2.22678584
      0.13000000	     -0.98291857	     -4.88947051	     -3.22979317	      0.14551662	      1.02004736	      0.94499876	      2.72209693	      8.08614297	      2.13560804	    -10.54181016	      9.46560393	     -1.18028962	      2.36287210	     -3.46954460	     -2.89036384	    -11.26977493	      6.78236778	    -12.35074926	    -10.27406836	      3.58034721	      2.22968155
      0.14000000	     -0.98182054	     -4.89111572	     -3.23627208	      0.14553295	      1.02004734	      0.94488718	      2.72084428	      8.08018804	      2.14056397	    -10.54280081	      9.46623061	     -1.17796220	      2.36242307	     -3.46378570	     -2.89285801	    -11.27425675	      6.78417731	    -12.35183515	    -10.27708847	      3.58926866	      2.23461306
      0.15000000	     -0.97045945	     -4.89350023	     -3.26153032	      0.14551534	      1.02005912	      0.94481736	      2.71518781	      8.07811724	      2.18643005	    -10.55662528	      9.47582292	     -1.15428706	      2.35972517	     -3.46130658	     -2.92392113	    -11.29987244	      6.80077629	    -12.36457849	    -10.30233526	      3.58760414	      2.28291334
      0.16000000	     -0.97336009	     -4.89546724	     -3.26439708	      0.14553074	      1.02005449	      0.94468606	      2.71688412	      8.07202520	      2.18773930	    -10.55424569	      9.47650659	     -1.15272495	      2.35992311	     -3.45510660	     -2.92865511	    -11.29526461	      6.80142859	    -12.36543265	    -10.30592727	      3.59770044	      2.28365624
      0.17000000	     -0.97651362	     -4.89772040	     -3.26575239	      0.14554519	      1.02005074	      0.94455444	      2.71935015	      8.06659052	      2.18949732	    -10.55274456	      9.47738981	     -1.15114104	      2.36085922	     -3.44944380	     -2.93255745	    -11.29152510	      6.80188508	    -12.36649428	    -10.31119739	      3.60535011	      2.28599916
      0.18000000	     -0.98058930	     -4.90004547	     -3.26552771	      0.14555330	      1.02004554	      0.94441626	      2.72322064	      8.06116358	      2.19117632	    -10.55098001	      9.47842269	     -1.14966424	      2.36298002	     -3.44356000	     -2.93595640	    -11.28729210	      6.80221879	    -12.36765571	    -10.31918228	      3.61221297	      2.28904322
      0.19000000	     -0.98574777	     -4.90245504	     -3.26349041	      0.14555463	      1.02003910	      0.94427108	      2.72854130	      8.05571757	      2.19254564	    -10.54860623	      9.47952911	     -1.14827499	      2.36609251	     -3.43748293	     -2.93905850	    -11.28207159	      6.80244458	    -12.36888455	    -10.32972721	      3.61844609	      2.29223269
      0.20000000	     -0.99203081	     -4.90491572	     -3.25965886	      0.14555263	      1.02003211	      0.94411993	      2.73475393	      8.04988024	      2.19351902	    -10.54616683	      9.48075761	     -1.14663830	      2.37060891	     -3.43151649	     -2.94193998	    -11.27531387	      6.80243711	    -12.37042468	    -10.34266224	      3.62376221	      2.29553231
      0.21000000	     -0.99947950	     -4.90747741	     -3.25376736	      0.14554487	      1.02002454	      0.94396349	      2.74231521	      8.04400226	      2.19381825	    -10.54316978	      9.48195324	     -1.14483678	      2.37613382	     -3.42560353	     -2.94433652	    -11.26719104	      6.80216486	    -12.37215832	    -10.35809708	      3.62793363	      2.29850815
